<svg xmlns="http://www.w3.org/2000/svg" width="35.995" height="35.999" viewBox="0 0 35.995 35.999">
  <g id="Group_2293" data-name="Group 2293" transform="translate(-54 -196)">
    <path id="Icon_awesome-blog" data-name="Icon awesome-blog" d="M12.108,15.947a1.69,1.69,0,0,0-1.983,1.673v3.544A1.69,1.69,0,0,0,11.3,22.711,3.375,3.375,0,1,1,6.75,25.875V8.438A1.683,1.683,0,0,0,5.063,6.75H1.688A1.683,1.683,0,0,0,0,8.438V25.875a10.127,10.127,0,1,0,12.108-9.928ZM14.7,0a1.132,1.132,0,0,0-1.2,1.125V3.347a1.114,1.114,0,0,0,1.055,1.118,18.058,18.058,0,0,1,16.938,16.98A1.123,1.123,0,0,0,32.611,22.5h2.257a1.132,1.132,0,0,0,1.125-1.2A22.554,22.554,0,0,0,14.7,0Zm.021,6.75A1.134,1.134,0,0,0,13.5,7.882v2.257a1.121,1.121,0,0,0,1.041,1.118A11.231,11.231,0,0,1,24.729,21.466,1.13,1.13,0,0,0,25.847,22.5h2.264a1.139,1.139,0,0,0,1.132-1.216A15.82,15.82,0,0,0,14.716,6.75Z" transform="translate(54 196.002)" fill="#fff"/>
  </g>
</svg>
